<svg width="24" height="25" viewBox="0 0 24 25" fill="none" xmlns="http://www.w3.org/2000/svg">
<path d="M4 9.30768H19.1724V21C19.1724 23.2091 17.3816 25 15.1724 25H8C5.79086 25 4 23.2091 4 21V9.30768Z" fill="#545454"/>
<path fill-rule="evenodd" clip-rule="evenodd" d="M20.2069 20.3846C22.3018 20.3846 24 18.3182 24 15.7692C24 13.2202 22.3018 11.1538 20.2069 11.1538C18.112 11.1538 16.4138 13.2202 16.4138 15.7692C16.4138 18.3182 18.112 20.3846 20.2069 20.3846ZM20.2069 18.5385C21.54 18.5385 22.6207 17.2986 22.6207 15.7692C22.6207 14.2398 21.54 13 20.2069 13C18.8738 13 17.7931 14.2398 17.7931 15.7692C17.7931 17.2986 18.8738 18.5385 20.2069 18.5385Z" fill="#545454"/>
<path d="M8.83313 7.46155C11.7987 4.87693 6.28142 3.58462 8.83313 1.00001" stroke="#545454" stroke-width="0.6"/>
<path d="M12.9711 7.46155C15.9366 4.87693 10.4193 3.58462 12.9711 1.00001" stroke="#545454" stroke-width="0.6"/>
</svg>
