<svg width="24" height="24" viewBox="0 0 24 24" fill="none" xmlns="http://www.w3.org/2000/svg">
<path d="M7.05699 20.2378L6.32769 11.9876H17.6723L16.943 20.2378C16.8198 21.6313 15.6525 22.7 14.2535 22.7H9.7465C8.34747 22.7 7.18018 21.6313 7.05699 20.2378Z" stroke="#FF7322" stroke-width="0.6"/>
<mask id="path-2-inside-1_24_240" fill="white">
<path fill-rule="evenodd" clip-rule="evenodd" d="M18 10.0715H6C6.33367 7.34447 8.89267 5.22336 12 5.22336C15.1073 5.22336 17.6663 7.34447 18 10.0715Z"/>
</mask>
<path d="M6 10.0715L5.40444 9.99867L5.32211 10.6715H6V10.0715ZM18 10.0715V10.6715H18.6779L18.5956 9.99867L18 10.0715ZM6 10.6715H18V9.47153H6V10.6715ZM6.59556 10.1444C6.88719 7.76089 9.15089 5.82336 12 5.82336V4.62336C8.63444 4.62336 5.78014 6.92804 5.40444 9.99867L6.59556 10.1444ZM12 5.82336C14.8491 5.82336 17.1128 7.76089 17.4044 10.1444L18.5956 9.99867C18.2199 6.92804 15.3656 4.62336 12 4.62336V5.82336Z" fill="#FF7322" mask="url(#path-2-inside-1_24_240)"/>
<path d="M5.3 11.0876C5.3 11.2533 5.43431 11.3876 5.6 11.3876H18.4C18.5657 11.3876 18.7 11.2533 18.7 11.0876V10.6715C18.7 10.5058 18.5657 10.3715 18.4 10.3715H5.6C5.43431 10.3715 5.3 10.5058 5.3 10.6715V11.0876Z" stroke="#FF7322" stroke-width="0.6"/>
<mask id="path-5-inside-2_24_240" fill="white">
<path fill-rule="evenodd" clip-rule="evenodd" d="M17.5 15H6.5L7 18.1518H17L17.5 15ZM12.4365 16.042C12.5597 15.9012 12.6599 15.7268 12.7098 15.486C12.2562 15.3587 11.5947 15.6672 11.1816 16.2146C10.8168 16.6981 10.7602 17.2164 11.0077 17.4937C11.0736 17.2835 11.1774 17.1125 11.3057 16.9659C11.4818 16.7646 11.6994 16.6153 11.8968 16.4799L11.9039 16.475C12.1082 16.3348 12.2909 16.2084 12.4365 16.042ZM12.6943 16.1851C12.8226 16.0384 12.9265 15.8674 12.9924 15.6569C13.24 15.9342 13.1834 16.4526 12.8185 16.9361C12.4054 17.4836 11.7438 17.7921 11.2902 17.6647C11.3401 17.4241 11.4403 17.2498 11.5635 17.109C11.709 16.9426 11.8918 16.8162 12.0961 16.676L12.1032 16.6712C12.3005 16.5357 12.5182 16.3864 12.6943 16.1851Z"/>
</mask>
<path fill-rule="evenodd" clip-rule="evenodd" d="M17.5 15H6.5L7 18.1518H17L17.5 15ZM12.4365 16.042C12.5597 15.9012 12.6599 15.7268 12.7098 15.486C12.2562 15.3587 11.5947 15.6672 11.1816 16.2146C10.8168 16.6981 10.7602 17.2164 11.0077 17.4937C11.0736 17.2835 11.1774 17.1125 11.3057 16.9659C11.4818 16.7646 11.6994 16.6153 11.8968 16.4799L11.9039 16.475C12.1082 16.3348 12.2909 16.2084 12.4365 16.042ZM12.6943 16.1851C12.8226 16.0384 12.9265 15.8674 12.9924 15.6569C13.24 15.9342 13.1834 16.4526 12.8185 16.9361C12.4054 17.4836 11.7438 17.7921 11.2902 17.6647C11.3401 17.4241 11.4403 17.2498 11.5635 17.109C11.709 16.9426 11.8918 16.8162 12.0961 16.676L12.1032 16.6712C12.3005 16.5357 12.5182 16.3864 12.6943 16.1851Z" fill="#FF7322"/>
<path d="M6.5 15V14.4H5.79731L5.90741 15.094L6.5 15ZM17.5 15L18.0926 15.094L18.2027 14.4H17.5V15ZM7 18.1518L6.40741 18.2458L6.48768 18.7518H7V18.1518ZM17 18.1518V18.7518H17.5123L17.5926 18.2458L17 18.1518ZM12.7098 15.486L13.2973 15.6077L13.4109 15.0596L12.8719 14.9083L12.7098 15.486ZM12.4365 16.042L12.8881 16.4371L12.8881 16.4371L12.4365 16.042ZM11.1816 16.2146L11.6606 16.576L11.6606 16.576L11.1816 16.2146ZM11.0077 17.4937L10.5601 17.8933L11.2639 18.6818L11.5802 17.6732L11.0077 17.4937ZM11.3057 16.9659L10.8541 16.5708V16.5708L11.3057 16.9659ZM11.8968 16.4799L12.2362 16.9746L12.2362 16.9746L11.8968 16.4799ZM11.9039 16.475L12.2434 16.9697L12.2434 16.9697L11.9039 16.475ZM12.9924 15.6569L13.4399 15.2573L12.7358 14.4689L12.4198 15.4776L12.9924 15.6569ZM12.6943 16.1851L13.1458 16.5802L13.1458 16.5802L12.6943 16.1851ZM12.8185 16.9361L13.2975 17.2975L12.8185 16.9361ZM11.2902 17.6647L10.7027 17.5428L10.589 18.091L11.128 18.2423L11.2902 17.6647ZM11.5635 17.109L12.0151 17.5041L12.0151 17.5041L11.5635 17.109ZM12.0961 16.676L11.7566 16.1813L11.7566 16.1813L12.0961 16.676ZM12.1032 16.6712L12.4427 17.1659L12.4427 17.1659L12.1032 16.6712ZM6.5 15.6H17.5V14.4H6.5V15.6ZM7.59259 18.0578L7.09259 14.906L5.90741 15.094L6.40741 18.2458L7.59259 18.0578ZM17 17.5518H7V18.7518H17V17.5518ZM16.9074 14.906L16.4074 18.0578L17.5926 18.2458L18.0926 15.094L16.9074 14.906ZM12.1223 15.3643C12.0952 15.4949 12.0463 15.5768 11.9849 15.647L12.8881 16.4371C13.0732 16.2255 13.2246 15.9587 13.2973 15.6077L12.1223 15.3643ZM11.6606 16.576C11.8096 16.3786 12.0024 16.2271 12.1873 16.1395C12.3826 16.0471 12.5074 16.0524 12.5477 16.0637L12.8719 14.9083C12.4587 14.7923 12.0259 14.8882 11.6737 15.055C11.3112 15.2267 10.9667 15.5033 10.7027 15.8532L11.6606 16.576ZM11.4553 17.0942C11.4779 17.1194 11.4469 17.1113 11.4602 17.0078C11.4733 16.9057 11.5283 16.7513 11.6606 16.576L10.7027 15.8532C10.4701 16.1615 10.3145 16.5079 10.2699 16.8551C10.2255 17.201 10.29 17.5907 10.5601 17.8933L11.4553 17.0942ZM10.8541 16.5708C10.6769 16.7735 10.5285 17.0164 10.4352 17.3142L11.5802 17.6732C11.6187 17.5505 11.678 17.4516 11.7573 17.361L10.8541 16.5708ZM11.5573 15.9851C11.3687 16.1146 11.0877 16.3038 10.8541 16.5708L11.7573 17.361C11.8759 17.2254 12.0301 17.116 12.2362 16.9746L11.5573 15.9851ZM11.5644 15.9803L11.5573 15.9851L12.2362 16.9746L12.2434 16.9697L11.5644 15.9803ZM11.9849 15.647C11.8975 15.7469 11.7797 15.8325 11.5644 15.9803L12.2434 16.9697C12.4366 16.8371 12.6844 16.6699 12.8881 16.4371L11.9849 15.647ZM12.4198 15.4776C12.3814 15.6004 12.322 15.6994 12.2427 15.7901L13.1458 16.5802C13.3232 16.3774 13.4716 16.1343 13.565 15.8363L12.4198 15.4776ZM13.2975 17.2975C13.5301 16.9893 13.6857 16.6428 13.7303 16.2955C13.7746 15.9496 13.7101 15.5598 13.4399 15.2573L12.5449 16.0566C12.5223 16.0313 12.5533 16.0394 12.54 16.1429C12.5269 16.245 12.4718 16.3995 12.3396 16.5747L13.2975 17.2975ZM11.128 18.2423C11.5413 18.3584 11.9741 18.2626 12.3263 18.0958C12.6889 17.9241 13.0334 17.6475 13.2975 17.2975L12.3396 16.5747C12.1906 16.7722 11.9977 16.9236 11.8128 17.0112C11.6175 17.1037 11.4927 17.0984 11.4525 17.087L11.128 18.2423ZM11.1119 16.7139C10.9268 16.9255 10.7755 17.1921 10.7027 17.5428L11.8777 17.7866C11.9048 17.6561 11.9537 17.5742 12.0151 17.5041L11.1119 16.7139ZM11.7566 16.1813C11.5633 16.3139 11.3156 16.4811 11.1119 16.7139L12.0151 17.5041C12.1024 17.4042 12.2202 17.3185 12.4356 17.1708L11.7566 16.1813ZM11.7637 16.1764L11.7566 16.1813L12.4355 17.1708L12.4427 17.1659L11.7637 16.1764ZM12.2427 15.7901C12.1241 15.9256 11.9698 16.035 11.7637 16.1764L12.4427 17.1659C12.6313 17.0365 12.9122 16.8472 13.1458 16.5802L12.2427 15.7901Z" fill="#FF7322" mask="url(#path-5-inside-2_24_240)"/>
<path d="M12.3801 5.73457L12.8423 3.06444C12.8903 2.78663 13.0535 2.54203 13.2915 2.39087L14.8283 1.41471" stroke="#FF7322" stroke-width="0.6"/>
</svg>
