<svg width="24" height="24" viewBox="0 0 24 24" fill="none" xmlns="http://www.w3.org/2000/svg">
<path d="M7.94483 6.05464H15.8069V20.475H7.94483V6.05464Z" fill="#FF7322"/>
<path fill-rule="evenodd" clip-rule="evenodd" d="M6.45072 4.12717C7.50552 5.86808 7.6908 7.39876 7.47164 8.80749C7.25487 10.2009 6.64242 11.485 6.03132 12.7662L5.9888 12.8553C5.37321 14.1465 4.76041 15.4512 4.67557 16.796C4.59949 18.0017 4.94691 19.214 6.00718 20.475H6.8138C5.56082 19.1681 5.20198 17.9812 5.27438 16.8337C5.35065 15.6249 5.90461 14.4261 6.5304 13.1136L6.58699 12.9949C7.18787 11.7356 7.83399 10.3815 8.06451 8.89973C8.30493 7.35429 8.09337 5.68044 6.96387 3.81625L6.45072 4.12717Z" fill="#FF7322"/>
<path d="M16.9882 3.96594C16.9883 3.96593 16.9882 3.96644 16.9879 3.96746L16.9882 3.96594ZM16.9571 3.93216C16.975 3.95178 16.9829 3.96484 16.9861 3.9717C16.9829 3.97857 16.975 3.99163 16.9571 4.01125C16.9172 4.05475 16.8441 4.11113 16.7247 4.17418C16.4866 4.29998 16.1222 4.42241 15.6466 4.52865C14.7003 4.74004 13.3785 4.8734 11.9083 4.8734C10.4381 4.8734 9.1162 4.74004 8.16993 4.52865C7.69436 4.42241 7.32998 4.29998 7.0918 4.17418C6.97242 4.11113 6.89932 4.05475 6.85947 4.01125C6.84149 3.99163 6.83367 3.97857 6.83043 3.9717C6.83367 3.96484 6.84149 3.95178 6.85947 3.93216C6.89932 3.88865 6.97242 3.83227 7.0918 3.76922C7.32998 3.64342 7.69436 3.52099 8.16993 3.41476C9.1162 3.20337 10.4381 3.07 11.9083 3.07C13.3785 3.07 14.7003 3.20337 15.6466 3.41476C16.1222 3.52099 16.4866 3.64342 16.7247 3.76922C16.8441 3.83227 16.9172 3.88865 16.9571 3.93216ZM6.82831 3.96594C6.82836 3.96594 6.82853 3.96645 6.82868 3.96746L6.82831 3.96594ZM6.82831 3.97747C6.82827 3.97747 6.82835 3.97697 6.82868 3.97594L6.82831 3.97747ZM16.9879 3.97595C16.9882 3.97696 16.9883 3.97747 16.9882 3.97747L16.9879 3.97595Z" stroke="#FF7322" stroke-width="0.6"/>
<mask id="path-4-inside-1_22_26" fill="white">
<path d="M1.24676 19.9943H22.7532C22.7532 19.9943 25.5584 19.9943 22.7532 21.7746C19.9481 23.5549 17.6104 24 12 24C6.38962 24 4.05196 23.5549 1.24676 21.7746C-1.55845 19.9943 1.24676 19.9943 1.24676 19.9943Z"/>
</mask>
<path d="M1.24676 20.5943H22.7532V19.3943H1.24676V20.5943ZM22.7532 19.9943C22.7532 20.5943 22.7531 20.5943 22.7529 20.5943C22.7529 20.5943 22.7527 20.5943 22.7526 20.5943C22.7525 20.5943 22.7523 20.5943 22.7523 20.5943C22.7521 20.5943 22.7521 20.5943 22.7522 20.5943C22.7525 20.5943 22.7534 20.5943 22.755 20.5944C22.758 20.5944 22.7634 20.5945 22.7709 20.5946C22.786 20.595 22.8094 20.5957 22.839 20.5971C22.899 20.6 22.9816 20.6059 23.0722 20.6174C23.2808 20.6439 23.4284 20.6884 23.4837 20.7235C23.5017 20.7349 23.4437 20.7045 23.4137 20.6093C23.3801 20.5027 23.4197 20.4394 23.4055 20.4664C23.354 20.5644 23.1272 20.8266 22.4317 21.268L23.0748 22.2812C23.7819 21.8325 24.2564 21.4271 24.4679 21.0244C24.5852 20.801 24.6466 20.5291 24.5583 20.2486C24.4735 19.9796 24.284 19.8101 24.1267 19.7103C23.8314 19.5229 23.453 19.4561 23.2233 19.4269C23.0947 19.4106 22.9801 19.4026 22.8976 19.3985C22.856 19.3965 22.8218 19.3955 22.7972 19.3949C22.7849 19.3946 22.7749 19.3945 22.7675 19.3944C22.7638 19.3944 22.7607 19.3944 22.7583 19.3944C22.7571 19.3943 22.7561 19.3943 22.7553 19.3943C22.7548 19.3943 22.7545 19.3943 22.7541 19.3943C22.754 19.3943 22.7537 19.3943 22.7537 19.3943C22.7534 19.3943 22.7532 19.3943 22.7532 19.9943ZM1.56826 21.268C0.872759 20.8266 0.645992 20.5644 0.5945 20.4664C0.580334 20.4394 0.619856 20.5027 0.586258 20.6093C0.556253 20.7045 0.498258 20.7349 0.516309 20.7235C0.571632 20.6884 0.719193 20.6439 0.927826 20.6174C1.01837 20.6059 1.10102 20.6 1.16096 20.5971C1.19063 20.5957 1.21399 20.595 1.22907 20.5946C1.23659 20.5945 1.24199 20.5944 1.24504 20.5944C1.24656 20.5943 1.24748 20.5943 1.24778 20.5943C1.24793 20.5943 1.24792 20.5943 1.24775 20.5943C1.24767 20.5943 1.24754 20.5943 1.24738 20.5943C1.24729 20.5943 1.24714 20.5943 1.2471 20.5943C1.24693 20.5943 1.24676 20.5943 1.24676 19.9943C1.24676 19.3943 1.24656 19.3943 1.24635 19.3943C1.24627 19.3943 1.24605 19.3943 1.24588 19.3943C1.24555 19.3943 1.24517 19.3943 1.24474 19.3943C1.2439 19.3943 1.24288 19.3943 1.24169 19.3944C1.23931 19.3944 1.23626 19.3944 1.23255 19.3944C1.22515 19.3945 1.21515 19.3946 1.20281 19.3949C1.17817 19.3955 1.144 19.3965 1.10244 19.3985C1.01993 19.4026 0.90534 19.4106 0.776725 19.4269C0.547045 19.4561 0.16863 19.5229 -0.126698 19.7103C-0.283971 19.8101 -0.473461 19.9796 -0.558255 20.2486C-0.646642 20.5291 -0.585205 20.801 -0.467876 21.0244C-0.25638 21.4271 0.218154 21.8325 0.925254 22.2812L1.56826 21.268ZM22.4317 21.268C19.7719 22.9561 17.5739 23.4 12 23.4V24.6C17.6469 24.6 20.1242 24.1538 23.0748 22.2812L22.4317 21.268ZM12 23.4C6.42612 23.4 4.22809 22.9561 1.56826 21.268L0.925254 22.2812C3.87583 24.1538 6.35312 24.6 12 24.6V23.4Z" fill="#FF7322" mask="url(#path-4-inside-1_22_26)"/>
<path fill-rule="evenodd" clip-rule="evenodd" d="M17.361 4.12717C16.3062 5.86808 16.1209 7.39876 16.3401 8.80749C16.5569 10.2009 17.1693 11.485 17.7804 12.7662L17.8229 12.8553C18.4385 14.1465 19.0513 15.4512 19.1362 16.796C19.2123 18.0017 18.8648 19.214 17.8046 20.475H16.9979C18.2509 19.1681 18.6098 17.9812 18.5374 16.8337C18.4611 15.6249 17.9071 14.4261 17.2813 13.1136L17.2248 12.9949C16.6239 11.7356 15.9778 10.3815 15.7472 8.89973C15.5068 7.35429 15.7184 5.68044 16.8479 3.81625L17.361 4.12717Z" fill="#FF7322"/>
<path d="M7.86208 6.13476C10.3448 5.57396 13.2414 6.37509 16.1379 6.13476" stroke="#FF7322" stroke-width="0.6"/>
<rect x="15.7241" y="6.37509" width="0.413793" height="0.801132" fill="#FF7322"/>
<rect width="0.825841" height="7.22638" rx="0.41292" transform="matrix(0.967968 0.251075 -0.266766 0.963761 15.2562 0)" fill="#FF7322"/>
<path d="M14.069 9.03357H16.3035C16.3035 9.03357 16.1379 10.7813 16.9655 11.983C17.7931 13.1847 18.2333 15.4632 18.2069 15.0421C18.2069 15.0421 19.0345 17.4455 18.6207 18.6472C18.2069 19.8489 17.7931 20.2494 16.3035 20.2494C14.8138 20.2494 14.069 20.2494 14.069 20.2494V9.03357Z" fill="#FF7322"/>
<path d="M9.6331 8.85862L7.86207 8.7785C7.86207 8.7785 7.56414 10.6064 6.73655 11.8081C5.90896 13.0098 5.3529 15.2883 5.37931 14.8671C5.37931 14.8671 4.84966 17.591 5.26345 18.7927C5.67724 19.9943 6.2069 20.3949 7.69655 20.3949C9.1862 20.3949 9.6331 20.0745 9.6331 20.0745V8.85862Z" fill="#FF7322"/>
</svg>
