<svg width="500" height="663" viewBox="0 0 500 663" fill="none" xmlns="http://www.w3.org/2000/svg">
<path d="M28.5078 261.061H471.49L439.94 645.979C439.179 655.245 431.438 662.377 422.142 662.377H77.856C68.5596 662.377 60.8167 655.245 60.0578 645.979L28.5078 261.061Z" fill="white"/>
<path d="M491.071 190.886H8.92857C3.99746 190.886 0 194.884 0 199.815V241.168C0 246.099 3.99746 250.097 8.92857 250.097H491.071C496.003 250.097 500 246.099 500 241.168V199.815C500 194.884 496.003 190.886 491.071 190.886Z" fill="white"/>
<path d="M35.0859 152.04C35.0859 132.315 51.0752 116.326 70.8002 116.326H429.197C448.92 116.326 464.911 132.315 464.911 152.04V182.115H35.0859V152.04Z" fill="white"/>
<path fill-rule="evenodd" clip-rule="evenodd" d="M359.652 440.886C359.652 501.443 310.559 550.536 250.002 550.536C189.445 550.536 140.354 501.443 140.354 440.886C140.354 380.329 189.445 331.238 250.002 331.238C310.559 331.238 359.652 380.329 359.652 440.886ZM348.561 441.638C348.561 495.879 304.589 539.852 250.346 539.852C196.104 539.852 152.132 495.879 152.132 441.638C152.132 387.395 196.104 343.424 250.346 343.424C304.589 343.424 348.561 387.395 348.561 441.638ZM250.018 388.254C262.975 388.254 273.157 392.024 280.562 399.563C287.966 407.102 291.67 418.024 291.67 432.329V490.465H284.216V459.151H215.82V478.295H208.366V432.329C208.366 418.024 212.068 407.102 219.473 399.563C226.975 392.024 237.157 388.254 250.018 388.254ZM284.216 452.481V431.604C284.216 419.618 281.195 410.533 275.153 404.347C269.211 398.161 260.832 395.068 250.018 395.068C239.204 395.068 230.775 398.161 224.734 404.347C218.791 410.533 215.82 419.618 215.82 431.604V452.481H284.216ZM212.182 493.518C214.305 493.518 216.027 491.81 216.027 489.702C216.027 487.595 214.305 485.886 212.182 485.886C210.057 485.886 208.336 487.595 208.336 489.702C208.336 491.81 210.057 493.518 212.182 493.518Z" fill="#FF7322"/>
<path d="M357.11 8.20899C359.479 1.7331 366.645 -1.60119 373.124 0.757202L390.867 7.21453C397.352 9.57578 400.697 16.7488 398.336 23.236L367.058 109.176L320.174 109.177L357.11 8.20899Z" fill="white"/>
</svg>
