<svg width="250" height="40" viewBox="0 0 250 40" fill="none" xmlns="http://www.w3.org/2000/svg">
<path d="M54.4799 14.3461C54.4799 15.0104 53.941 15.549 53.2761 15.549C52.6112 15.549 52.0723 15.0104 52.0723 14.3461C52.0723 13.6817 52.6112 13.1431 53.2761 13.1431C53.941 13.1431 54.4799 13.6817 54.4799 14.3461Z" fill="#042440"/>
<path d="M2.79958 38.6012C2.79958 39.3737 2.17288 40 1.39979 40C0.626708 40 0 39.3737 0 38.6012C0 37.8287 0.626708 37.2024 1.39979 37.2024C2.17288 37.2024 2.79958 37.8287 2.79958 38.6012Z" fill="#042440"/>
<path fill-rule="evenodd" clip-rule="evenodd" d="M26.2881 6.11274C23.593 3.34872 19.8873 1.96671 15.171 1.96671C10.4901 1.96671 6.78434 3.34872 4.05381 6.11274C1.35874 8.87677 0.0112093 12.8811 0.0112093 18.1256V35.5239H2.72401V27.9592H27.6179V39.4405H30.3307V18.1256C30.3307 12.8811 28.9832 8.87677 26.2881 6.11274ZM27.6179 17.8598V25.5141H2.72401V17.8598C2.72401 13.4658 3.80558 10.1348 5.96873 7.86684C8.16733 5.59892 11.2347 4.46496 15.171 4.46496C19.1072 4.46496 22.1569 5.59892 24.32 7.86684C26.5186 10.1348 27.6179 13.4658 27.6179 17.8598Z" fill="#042440"/>
<path d="M39.0413 38.6432C41.0626 39.3165 43.1903 39.6531 45.4244 39.6531C48.8996 39.6531 51.5947 38.9621 53.5096 37.5801C55.4245 36.1981 56.382 34.3554 56.382 32.052C56.382 30.3157 55.921 28.9514 54.999 27.9592C54.077 26.9669 52.9422 26.2582 51.5947 25.833C50.2826 25.3723 48.545 24.9471 46.3819 24.5573C44.4315 24.1675 42.9066 23.8131 41.8073 23.4942C40.7435 23.1398 39.8392 22.626 39.0945 21.9527C38.3498 21.244 37.9775 20.2695 37.9775 19.0292C37.9775 17.47 38.6335 16.2121 39.9456 15.2553C41.2577 14.2985 43.2081 13.8201 45.7967 13.8201C47.3216 13.8201 48.811 14.0327 50.2649 14.458C50.4106 14.5006 50.5547 14.5452 50.6973 14.5917L51.4759 12.3319C51.3575 12.2957 51.2375 12.2602 51.1159 12.2255C49.3783 11.7294 47.623 11.4813 45.8499 11.4813C42.4811 11.4813 39.8747 12.2078 38.0307 13.6607C36.2222 15.0781 35.3179 16.8853 35.3179 19.0824C35.3179 20.8896 35.7966 22.3071 36.7541 23.3347C37.7115 24.3624 38.864 25.1065 40.2116 25.5672C41.5591 26.0279 43.3322 26.4531 45.5308 26.8429C47.4102 27.1973 48.8819 27.5339 49.9457 27.8529C51.0096 28.1718 51.8961 28.6679 52.6053 29.3412C53.35 30.0145 53.7224 30.9358 53.7224 32.1052C53.7224 33.7353 53.0486 35.011 51.7011 35.9323C50.389 36.8536 48.3322 37.3143 45.5308 37.3143C43.5804 37.3143 41.7009 36.9954 39.8924 36.3575C38.1193 35.7197 36.6654 34.9224 35.5307 33.9656L34.3072 36.0918C35.442 37.1194 37.02 37.9699 39.0413 38.6432Z" fill="#042440"/>
<path d="M81.8365 39.4405H84.3897V11.6939H81.7301V26.4708C81.7301 29.7664 80.8081 32.3887 78.9641 34.3377C77.1556 36.2867 74.691 37.2612 71.5704 37.2612C68.6626 37.2612 66.4108 36.4461 64.815 34.8161C63.2192 33.186 62.4213 30.8118 62.4213 27.6934V11.6939H59.7617V27.906C59.7617 31.6977 60.7901 34.6034 62.8469 36.6233C64.9036 38.6432 67.7406 39.6531 71.3576 39.6531C73.8045 39.6531 75.9321 39.1216 77.7407 38.0585C79.5492 36.96 80.9145 35.4362 81.8365 33.4872V39.4405Z" fill="#042440"/>
<path d="M113.749 14.5111C111.728 12.4913 108.979 11.4813 105.504 11.4813C102.915 11.4813 100.664 12.0306 98.7486 13.1291C96.8692 14.2276 95.4507 15.7514 94.4933 17.7004V11.6939H91.9401V39.4405H94.5997V24.6636C94.5997 21.368 95.5394 18.7457 97.4188 16.7968C99.2983 14.8478 101.869 13.8733 105.132 13.8733C107.969 13.8733 110.167 14.6883 111.728 16.3184C113.323 17.9484 114.121 20.3227 114.121 23.441V39.4405H116.781V23.2284C116.781 19.4368 115.77 16.531 113.749 14.5111Z" fill="#042440"/>
<path fill-rule="evenodd" clip-rule="evenodd" d="M146.134 39.4405H148.74V11.6939H146.08V18.1256C144.946 16.0349 143.385 14.4048 141.4 13.2354C139.449 12.066 137.233 11.4813 134.751 11.4813C132.162 11.4813 129.821 12.0837 127.729 13.2886C125.637 14.458 123.988 16.1235 122.782 18.2851C121.612 20.4113 121.027 22.8386 121.027 25.5672C121.027 28.2958 121.612 30.7232 122.782 32.8494C123.988 34.9755 125.637 36.641 127.729 37.8459C129.821 39.0507 132.162 39.6531 134.751 39.6531C137.268 39.6531 139.52 39.0684 141.506 37.899C143.492 36.7296 145.034 35.0641 146.134 32.9025V39.4405ZM140.602 35.7728C138.935 36.7651 137.038 37.2612 134.91 37.2612C132.782 37.2612 130.868 36.7651 129.165 35.7728C127.499 34.7806 126.169 33.3986 125.176 31.6268C124.219 29.855 123.74 27.8351 123.74 25.5672C123.74 23.2993 124.219 21.2794 125.176 19.5076C126.169 17.7358 127.499 16.3538 129.165 15.3616C130.868 14.3694 132.782 13.8733 134.91 13.8733C137.038 13.8733 138.935 14.3694 140.602 15.3616C142.304 16.3538 143.634 17.7358 144.591 19.5076C145.584 21.2794 146.08 23.2993 146.08 25.5672C146.08 27.8351 145.584 29.855 144.591 31.6268C143.634 33.3986 142.304 34.7806 140.602 35.7728Z" fill="#042440"/>
<path d="M166.602 39.1747C167.631 38.8204 168.482 38.3242 169.155 37.6864L168.038 35.826C166.904 36.8536 165.467 37.3675 163.73 37.3675C162.028 37.3675 160.733 36.9068 159.847 35.9855C158.996 35.0287 158.57 33.6467 158.57 31.8394V13.9796H164.056V11.6939H158.57V5.63436H155.911V32.1052C155.911 34.4794 156.567 36.3398 157.879 37.6864C159.191 38.9975 161.053 39.6531 163.464 39.6531C164.563 39.6531 165.609 39.4936 166.602 39.1747Z" fill="#042440"/>
<path fill-rule="evenodd" clip-rule="evenodd" d="M188.213 36.3044C186.688 36.9422 185.022 37.2612 183.213 37.2612C180.376 37.2612 177.947 36.517 175.926 35.0287C173.905 33.5404 172.557 31.5205 171.883 28.9691L195.341 24.3978C195.235 21.9527 194.596 19.7557 193.426 17.8067C192.291 15.8223 190.749 14.2808 188.798 13.1823C186.883 12.0483 184.72 11.4813 182.309 11.4813C179.72 11.4813 177.397 12.0837 175.341 13.2886C173.284 14.4934 171.67 16.1589 170.5 18.2851C169.365 20.4113 168.798 22.8386 168.798 25.5672C168.798 28.2958 169.401 30.7232 170.607 32.8494C171.848 34.9755 173.55 36.641 175.713 37.8459C177.912 39.0507 180.394 39.6531 183.16 39.6531C185.323 39.6531 187.309 39.281 189.117 38.5369C190.926 37.7573 192.433 36.6233 193.639 35.135L192.096 33.3809C191.068 34.6566 189.774 35.6311 188.213 36.3044ZM176.671 15.3084C178.337 14.3162 180.217 13.8201 182.309 13.8201C184.153 13.8201 185.82 14.2276 187.309 15.0427C188.798 15.8223 190.004 16.9031 190.926 18.2851C191.848 19.6671 192.433 21.1908 192.681 22.8563L171.511 27.0024C171.44 26.2937 171.405 25.7444 171.405 25.3546C171.405 23.1221 171.866 21.1377 172.788 19.4013C173.71 17.6295 175.004 16.2652 176.671 15.3084Z" fill="#042440"/>
<path d="M203.622 37.8459C205.75 39.0507 208.161 39.6531 210.856 39.6531C213.09 39.6531 215.111 39.2279 216.92 38.3774C218.764 37.4915 220.253 36.2158 221.388 34.5503L219.42 33.1151C218.427 34.4971 217.186 35.5425 215.697 36.2512C214.243 36.9245 212.629 37.2612 210.856 37.2612C208.693 37.2612 206.743 36.7828 205.005 35.826C203.303 34.8338 201.955 33.4518 200.962 31.68C200.005 29.9082 199.526 27.8706 199.526 25.5672C199.526 23.2639 200.005 21.2263 200.962 19.4545C201.955 17.6827 203.303 16.3184 205.005 15.3616C206.743 14.3694 208.693 13.8733 210.856 13.8733C212.629 13.8733 214.243 14.2276 215.697 14.9364C217.186 15.6096 218.427 16.6373 219.42 18.0193L221.388 16.5841C220.253 14.9186 218.764 13.6607 216.92 12.8102C215.111 11.9243 213.09 11.4813 210.856 11.4813C208.161 11.4813 205.75 12.0837 203.622 13.2886C201.494 14.458 199.828 16.1235 198.622 18.2851C197.416 20.4113 196.813 22.8386 196.813 25.5672C196.813 28.2604 197.416 30.6877 198.622 32.8494C199.828 34.9755 201.494 36.641 203.622 37.8459Z" fill="#042440"/>
<path d="M246.968 14.5111C244.947 12.4913 242.199 11.4813 238.723 11.4813C236.17 11.4813 233.954 12.0129 232.074 13.076C230.195 14.1036 228.776 15.5742 227.819 17.4878V0H225.159V39.4405H227.819V24.6636C227.819 21.368 228.759 18.7457 230.638 16.7968C232.518 14.8478 235.088 13.8733 238.351 13.8733C241.188 13.8733 243.386 14.6883 244.947 16.3184C246.543 17.9484 247.34 20.3227 247.34 23.441V39.4405H250V23.2284C250 19.4368 248.989 16.531 246.968 14.5111Z" fill="#042440"/>
<path d="M167.415 12.8633C167.415 13.4814 166.914 13.9824 166.295 13.9824C165.677 13.9824 165.176 13.4814 165.176 12.8633C165.176 12.2453 165.677 11.7443 166.295 11.7443C166.914 11.7443 167.415 12.2453 167.415 12.8633Z" fill="#042440"/>
</svg>
