<svg width="834" height="134" viewBox="0 0 834 134" fill="none" xmlns="http://www.w3.org/2000/svg">
<path d="M181.6 47.8202C181.6 50.0348 179.803 51.8301 177.587 51.8301C175.371 51.8301 173.574 50.0348 173.574 47.8202C173.574 45.6056 175.371 43.8103 177.587 43.8103C179.803 43.8103 181.6 45.6056 181.6 47.8202Z" fill="white"/>
<path d="M9.33195 128.671C9.33195 131.246 7.24292 133.333 4.66597 133.333C2.08903 133.333 0 131.246 0 128.671C0 126.096 2.08903 124.008 4.66597 124.008C7.24292 124.008 9.33195 126.096 9.33195 128.671Z" fill="white"/>
<path fill-rule="evenodd" clip-rule="evenodd" d="M87.627 20.3758C78.6435 11.1624 66.2911 6.5557 50.5699 6.5557C34.9669 6.5557 22.6145 11.1624 13.5127 20.3758C4.52914 29.5892 0.0373643 42.9369 0.0373643 60.4187V118.413H9.08002V93.1972H92.0597V131.468H101.102V60.4187C101.102 42.9369 96.6106 29.5892 87.627 20.3758ZM92.0597 59.5328V85.0469H9.08002V59.5328C9.08002 44.8858 12.6853 33.7825 19.8958 26.2228C27.2244 18.6631 37.4492 14.8832 50.5699 14.8832C63.6906 14.8832 73.8562 18.6631 81.0667 26.2228C88.3954 33.7825 92.0597 44.8858 92.0597 59.5328Z" fill="white"/>
<path d="M130.138 128.811C136.875 131.055 143.968 132.177 151.415 132.177C162.999 132.177 171.982 129.874 178.365 125.267C184.748 120.66 187.94 114.518 187.94 106.84C187.94 101.052 186.403 96.5046 183.33 93.1972C180.257 89.8898 176.474 87.5274 171.982 86.11C167.609 84.5744 161.817 83.1569 154.606 81.8576C148.105 80.5583 143.022 79.3771 139.358 78.314C135.812 77.1328 132.797 75.4201 130.315 73.1758C127.833 70.8133 126.592 67.565 126.592 63.4308C126.592 58.2335 128.778 54.0402 133.152 50.8509C137.526 47.6617 144.027 46.0671 152.656 46.0671C157.739 46.0671 162.703 46.7758 167.55 48.1932C168.035 48.3353 168.516 48.4839 168.991 48.639L171.586 41.1065C171.192 40.9856 170.792 40.8673 170.386 40.7516C164.594 39.0979 158.743 38.2711 152.833 38.2711C141.604 38.2711 132.916 40.6926 126.769 45.5355C120.741 50.2603 117.726 56.2845 117.726 63.608C117.726 69.6321 119.322 74.357 122.514 77.7825C125.705 81.208 129.547 83.6885 134.039 85.2241C138.53 86.7596 144.441 88.1771 151.769 89.4764C158.034 90.6576 162.94 91.7798 166.486 92.8428C170.032 93.9059 172.987 95.5596 175.351 97.8039C177.833 100.048 179.075 103.119 179.075 107.017C179.075 112.451 176.829 116.703 172.337 119.774C167.963 122.845 161.107 124.381 151.769 124.381C145.268 124.381 139.003 123.318 132.975 121.192C127.064 119.066 122.218 116.408 118.436 113.219L114.357 120.306C118.14 123.731 123.4 126.566 130.138 128.811Z" fill="white"/>
<path d="M272.788 131.468H281.299V38.9798H272.434V88.2361C272.434 99.2214 269.36 107.962 263.214 114.459C257.185 120.956 248.97 124.204 238.568 124.204C228.875 124.204 221.369 121.487 216.05 116.054C210.731 110.62 208.071 102.706 208.071 92.3113V38.9798H199.206V93.02C199.206 105.659 202.634 115.345 209.49 122.078C216.345 128.811 225.802 132.177 237.859 132.177C246.015 132.177 253.107 130.405 259.136 126.862C265.164 123.2 269.715 118.121 272.788 111.624V131.468Z" fill="white"/>
<path d="M379.163 48.3704C372.425 41.6375 363.264 38.2711 351.68 38.2711C343.051 38.2711 335.545 40.102 329.162 43.7637C322.897 47.4254 318.169 52.5046 314.978 59.0013V38.9798H306.467V131.468H315.332V82.212C315.332 71.2268 318.465 62.4858 324.729 55.9892C330.994 49.4925 339.564 46.2442 350.439 46.2442C359.895 46.2442 367.224 48.961 372.425 54.3946C377.744 59.8281 380.404 67.7422 380.404 78.1368V131.468H389.269V77.4281C389.269 64.7892 385.9 55.1033 379.163 48.3704Z" fill="white"/>
<path fill-rule="evenodd" clip-rule="evenodd" d="M487.112 131.468H495.8V38.9798H486.935V60.4187C483.152 53.4496 477.951 48.016 471.332 44.1181C464.831 40.2201 457.443 38.2711 449.169 38.2711C440.54 38.2711 432.738 40.2791 425.764 44.2952C418.79 48.1932 413.293 53.7449 409.274 60.9503C405.374 68.0375 403.423 76.1288 403.423 85.2241C403.423 94.3193 405.374 102.411 409.274 109.498C413.293 116.585 418.79 122.137 425.764 126.153C432.738 130.169 440.54 132.177 449.169 132.177C457.561 132.177 465.067 130.228 471.687 126.33C478.306 122.432 483.448 116.88 487.112 109.675V131.468ZM468.672 119.243C463.117 122.55 456.793 124.204 449.7 124.204C442.608 124.204 436.225 122.55 430.551 119.243C424.996 115.935 420.563 111.329 417.253 105.423C414.062 99.5167 412.466 92.7838 412.466 85.2241C412.466 77.6643 414.062 70.9314 417.253 65.0254C420.563 59.1194 424.996 54.5127 430.551 51.2053C436.225 47.8979 442.608 46.2442 449.7 46.2442C456.793 46.2442 463.117 47.8979 468.672 51.2053C474.346 54.5127 478.779 59.1194 481.97 65.0254C485.28 70.9314 486.935 77.6643 486.935 85.2241C486.935 92.7838 485.28 99.5167 481.97 105.423C478.779 111.329 474.346 115.935 468.672 119.243Z" fill="white"/>
<path d="M555.341 130.582C558.769 129.401 561.606 127.747 563.852 125.621L560.128 119.42C556.346 122.845 551.558 124.558 545.766 124.558C540.092 124.558 535.778 123.023 532.823 119.952C529.986 116.762 528.568 112.156 528.568 106.131V46.5986H546.852V38.9798H528.568V18.7812H519.702V107.017C519.702 114.931 521.889 121.133 526.263 125.621C530.636 129.992 536.842 132.177 544.88 132.177C548.544 132.177 552.031 131.645 555.341 130.582Z" fill="white"/>
<path fill-rule="evenodd" clip-rule="evenodd" d="M627.377 121.015C622.295 123.141 616.739 124.204 610.711 124.204C601.254 124.204 593.157 121.723 586.419 116.762C579.682 111.801 575.19 105.068 572.944 96.5636L651.137 81.3261C650.782 73.1757 648.654 65.8523 644.753 59.3556C640.971 52.7409 635.829 47.6026 629.328 43.9409C622.945 40.161 615.734 38.2711 607.696 38.2711C599.067 38.2711 591.325 40.2791 584.469 44.2952C577.613 48.3113 572.235 53.863 568.334 60.9503C564.552 68.0375 562.66 76.1288 562.66 85.2241C562.66 94.3193 564.67 102.411 568.689 109.498C572.826 116.585 578.5 122.137 585.71 126.153C593.039 130.169 601.313 132.177 610.533 132.177C617.744 132.177 624.363 130.937 630.392 128.456C636.42 125.858 641.444 122.078 645.463 117.117L640.321 111.27C636.893 115.522 632.578 118.77 627.377 121.015ZM588.902 51.0281C594.457 47.7207 600.722 46.0671 607.696 46.0671C613.843 46.0671 619.399 47.4254 624.363 50.1422C629.328 52.7409 633.347 56.3436 636.42 60.9503C639.493 65.557 641.444 70.6362 642.271 76.1878L571.703 90.0079C571.467 87.6455 571.348 85.8147 571.348 84.5153C571.348 77.0737 572.885 70.459 575.958 64.6711C579.032 58.765 583.346 54.2174 588.902 51.0281Z" fill="white"/>
<path d="M678.74 126.153C685.832 130.169 693.87 132.177 702.853 132.177C710.3 132.177 717.038 130.76 723.066 127.925C729.213 124.972 734.178 120.719 737.96 115.168L731.4 110.384C728.09 114.99 723.953 118.475 718.988 120.837C714.142 123.082 708.764 124.204 702.853 124.204C695.643 124.204 689.142 122.609 683.35 119.42C677.676 116.113 673.184 111.506 669.874 105.6C666.683 99.6938 665.087 92.9019 665.087 85.2241C665.087 77.5462 666.683 70.7543 669.874 64.8482C673.184 58.9422 677.676 54.3946 683.35 51.2053C689.142 47.8979 695.643 46.2442 702.853 46.2442C708.764 46.2442 714.142 47.4254 718.988 49.7879C723.953 52.0322 728.09 55.4576 731.4 60.0644L737.96 55.2805C734.178 49.7288 729.213 45.5355 723.066 42.7006C717.038 39.7476 710.3 38.2711 702.853 38.2711C693.87 38.2711 685.832 40.2791 678.74 44.2952C671.647 48.1932 666.092 53.7449 662.073 60.9503C658.054 68.0375 656.044 76.1288 656.044 85.2241C656.044 94.2012 658.054 102.292 662.073 109.498C666.092 116.585 671.647 122.137 678.74 126.153Z" fill="white"/>
<path d="M823.227 48.3704C816.489 41.6375 807.328 38.2711 795.744 38.2711C787.234 38.2711 779.846 40.0429 773.581 43.5865C767.316 47.012 762.588 51.914 759.396 58.2925V0H750.531V131.468H759.396V82.212C759.396 71.2268 762.529 62.4858 768.794 55.9892C775.058 49.4925 783.628 46.2442 794.503 46.2442C803.959 46.2442 811.288 48.961 816.489 54.3946C821.808 59.8281 824.468 67.7422 824.468 78.1368V131.468H833.333V77.4281C833.333 64.7892 829.964 55.1033 823.227 48.3704Z" fill="white"/>
<path d="M558.051 42.8778C558.051 44.9379 556.379 46.6079 554.318 46.6079C552.256 46.6079 550.585 44.9379 550.585 42.8778C550.585 40.8177 552.256 39.1477 554.318 39.1477C556.379 39.1477 558.051 40.8177 558.051 42.8778Z" fill="white"/>
</svg>
