<svg width="120" height="120" viewBox="0 0 120 120" fill="none" xmlns="http://www.w3.org/2000/svg">
<rect width="120" height="120" fill="white"/>
<path d="M42.9194 84.2883C42.9194 85.3698 42.042 86.2466 40.9597 86.2466C39.8774 86.2466 39 85.3698 39 84.2883C39 83.2068 39.8774 82.33 40.9597 82.33C42.042 82.33 42.9194 83.2068 42.9194 84.2883Z" fill="#042440"/>
<path fill-rule="evenodd" clip-rule="evenodd" d="M75.8033 38.8044C72.0302 34.9348 66.8422 33 60.2394 33C53.6861 33 48.4981 34.9348 44.6753 38.8044C40.9022 42.6741 39.0157 48.2801 39.0157 55.6224V79.9801H42.8136V69.3895H77.6651V85.4633H81.463V55.6224C81.463 48.2801 79.5765 42.6741 75.8033 38.8044ZM77.6651 55.2503V65.9663H42.8136V55.2503C42.8136 49.0987 44.3278 44.4353 47.3562 41.2602C50.4343 38.0851 54.7286 36.4976 60.2394 36.4976C65.7501 36.4976 70.0197 38.0851 73.048 41.2602C76.126 44.4353 77.6651 49.0987 77.6651 55.2503Z" fill="#042440"/>
</svg>
